<?xml version="1.0" encoding="utf-8"?>
<!-- Generator: Adobe Illustrator 28.0.0, SVG Export Plug-In . SVG Version: 6.00 Build 0)  -->
<svg version="1.1" id="Layer_1" xmlns="http://www.w3.org/2000/svg" xmlns:xlink="http://www.w3.org/1999/xlink" x="0px" y="0px"
	 viewBox="0 0 1503 578" style="enable-background:new 0 0 1503 578;" xml:space="preserve">
<style type="text/css">
	.st0{fill:#222222;}
</style>
<path class="st0" d="M205.3,0.2c-6.5,0-12.8,0.3-19.1,0.9v407.4c6.4,0.7,12.7,1.1,19.1,1.1C318.4,409.6,410,318,410,204.9
	S318.4,0.2,205.3,0.2z M280.1,223.2c-0.8,12.8-2.5,25.6-5.1,38.2h-47.9v-38.2H280.1z M226.8,185.5v-38.4h47.7
	c2.7,12.6,4.5,25.3,5.4,38.1L226.8,185.5z M320,223.8h48c-1.5,13-4.5,25.9-9,38.2h-43.9c2.7-12.6,4.5-25.4,5.4-38.2 M320.5,185.5
	c-0.9-12.8-2.7-25.6-5.4-38.1h44.1c4.5,12.3,7.5,25.1,8.9,38.1H320.5z M338.6,109.1h-34.5c-6.7-18-15.4-35.2-26-51.3
	C302.1,69.7,322.9,87.3,338.6,109.1z M264,109.1h-36.7V42.2c15.6,20.2,27.9,42.6,36.7,66.6 M227.3,367.4v-67.6h37.2
	C255.8,324.2,243.2,347,227.3,367.4z M278.4,351.8c10.7-16.2,19.5-33.7,26.1-51.9h34.7C323.5,321.9,302.6,339.8,278.4,351.8z
	 M864.3,384.8H756.9V46.2h105.7c68.4,0,99.7,46.8,99.7,87.9c0,32.3-13.4,53.9-40.6,70.4v1c39.1,8.7,62.6,36,62.6,77.1
	c0,48.5-34.9,102.4-120.1,102.4 M853.9,98.9h-35V187h32.8c27.8,0,48.5-17.9,48.5-46.2c0-24.1-16.5-42.1-46.2-42.1 M865.8,238.8
	h-46.7v93.6h39.5c41.6,0,62.1-18.6,62.1-49.3C920.7,256.9,900.7,238.9,865.8,238.8 M1233.7,98.2h-90.1v286.6h-62.7V98.2h-98.1V46.3
	h271.1L1233.7,98.2z M662.3,384.8l-33.5-84.9H507.9l-31.2,84.9h-62.2L545.6,46.1h46.5l135.7,338.7H662.3z M582.4,171.3
	c-5.3-13.7-9.6-27.6-13.1-41.9h-0.5c-3,14-7.2,27.8-12.4,41.1L527,249.1h82.3L582.4,171.3z M1437.7,384.8l-33.4-84.9h-120.8
	l-31.3,84.9h-62.3l130.9-338.5h46.6L1503,384.8H1437.7z M1357.6,171.3c-5.2-13.7-9.5-27.6-12.8-41.9h-0.5c-3,14-7.1,27.8-12.3,41.1
	l-29.4,78.8h82.6L1357.6,171.3z"/>
<path class="st0" d="M166.8,166.2v-15.5L68.9,52.8c-5.5,4.9-10.6,10-15.5,15.5l98.1,98h15.3V166.2z M166.8,242.3v15.5l-97.9,97.9
	c-5.4-4.9-10.6-10.1-15.5-15.5l98.1-98L166.8,242.3z M166.8,185.5H1.5c-0.6,6.2-0.9,12.6-0.9,19.1s0.3,12.8,0.9,19h165.2
	L166.8,185.5z"/>
<path class="st0" d="M42.6,81c-19,25-31.9,54.1-37.7,85h122.9L42.6,81z M166.8,126.9V4.2c-30.9,5.8-59.9,18.7-85,37.7L166.8,126.9z
	 M81.8,366.5c25,19,54.1,31.9,85,37.7V281.6L81.8,366.5z M127.6,242.3H4.8c5.8,30.9,18.7,60,37.7,85L127.6,242.3z M113.1,491H86.2
	v84.2H67.6V491H38.8v-15.2h78.8L113.1,491z M156.1,520.6c-2.6-1.5-5.5-2.3-8.5-2.3c-5.2,0.3-10.1,2.6-13.7,6.4v50.5h-18v-71.4h15.2
	l1.9,7.5c5.1-5.5,12.2-8.9,19.8-9.2c3.5,0,7,1,10,3L156.1,520.6z M211.3,575.1l-3-6.4c-5.6,5.2-13,8-20.7,7.9
	c-12.2,0.6-22.7-8.7-23.4-21v-2c0-14.8,11.6-22.8,29.8-23.4l12.7-0.4v-1.7c0-8.6-6-12.1-13.6-12.1c-6.5,0-12.9,1.9-18.4,5.4
	l-5.9-11.3c8.2-5.5,18-8.2,27.9-7.9c17.7,0,28.3,7.2,28.3,26v28.2c-0.4,6.3,0.1,12.7,1.3,18.9L211.3,575.1z M206.8,542.4l-10.2,0.3
	c-9.8,0.3-14.2,3.6-14.2,9.6s4.1,10,11.6,10c4.7,0.2,9.3-1.5,12.8-4.5V542.4z M274.2,575.6h-13.1l-29.3-71.8h18.5l17.8,48.5h0.3
	l18.1-48.5H304L274.2,575.6z M325.9,544.3c0.5,10.4,9.3,18.4,19.7,17.9h0.1c6.5,0,12.9-1.7,18.5-5l4.4,11.6
	c-7.6,5.1-16.6,7.8-25.8,7.7c-24.9,0-35.4-18.1-35.4-37.3c0-20.4,12.1-37.3,32.3-37.3c19.3,0,32,14.7,32,36.8v5.4L325.9,544.3z
	 M339.5,515.8c-8.1,0.4-14.4,7.3-14,15.4v0.1h27.7c-0.3-7.7-4.5-15.7-13.7-15.7V515.8z M401.9,576.6c-11.9,0-16.2-6.8-16.2-15.7
	v-92.6h18.1V553c0,5.4,1.1,7.4,4.8,7.4c1.8,0,3.6-0.3,5.4-0.8l2.3,13.4C412,575.5,407,576.8,401.9,576.6z M540.2,575.6h-13.7
	l-16.2-48.5H510l-16.2,48.5H480l-26-71.8h18.4l15.2,48.5h0.3l15.7-48.5h14.1l15.8,48.5h0.3l14.9-48.5h17.4L540.2,575.6z
	 M586.6,492.6c-5.9-0.3-10.5-5.4-10.2-11.3c0.3-5.9,5.4-10.5,11.3-10.2c5.7,0.3,10.2,5,10.2,10.7
	C597.7,487.9,592.6,492.7,586.6,492.6z M577.5,575v-71.2h18.1v71.3L577.5,575z M638.8,576.6c-12.7,0-17.7-7.1-17.7-16.8v-42.5h-12.7
	v-13.6H621v-16.5l18.1-5.4v21.9h22.2l-5.4,13.6H639v35.9c0,5.4,2.1,8.1,6.8,8.1c4.3-0.2,8.4-1.6,11.9-3.9l4.8,11.5
	C655.6,573.7,647.3,576.4,638.8,576.6z M719,575.1v-41.6c0-8-1.2-15.5-10.8-15.5c-6.5,0.5-12.6,3.1-17.3,7.5v49.6h-18.1V468.4h18.3
	v43.1c6.5-5.8,14.9-9.1,23.7-9.4c10.8,0,22.8,5.4,22.8,26.2v46.8H719z M821.5,576.6c-23.2,0-35.1-16.8-35.1-36.8
	c-0.8-20,14.8-36.9,34.7-37.7h2.2c7.1-0.3,14.2,1.5,20.4,5l-0.3,14.8c-5.1-4-11.5-6-17.9-5.9c-11.9,0.2-21.4,10-21.2,21.9v1.1
	c0,12.2,6.6,23.1,20.8,23.1c6,0,11.8-1.6,16.9-4.7l4.5,11.9C839,573.9,830.3,576.5,821.5,576.6z M915,566.4
	c-13.4,14.3-35.8,15-50,1.6c-7.7-7.3-11.8-17.6-11.1-28.2c-0.3-10.2,3.4-20.1,10.4-27.6c6.7-6.7,15.9-10.3,25.3-10.1
	c9.8-0.4,19.3,3.4,26.2,10.2c6.5,7.4,9.9,17.1,9.5,26.9C925.6,549.4,921.9,559.1,915,566.4z M889,516.5c-11.5,0-17,9.6-17,23
	c0,13.3,6.5,23.2,17.5,23.2s17-9.8,17-23.2C906.5,526,900.2,516.5,889,516.5z M985.6,575.1v-41.9c0-7.4-1.3-15.5-10.8-15.5
	c-6.7,0.5-13,3.2-18.1,7.5v49.9h-17.8v-71.4h15.2l1.9,7.7c7-5.8,15.8-9.2,25-9.4c10.8,0,22.5,6.5,22.5,25.6V575L985.6,575.1z
	 M1061.5,485.1c-2.9-1.2-5.9-1.9-9.1-1.9c-5.7,0-8.5,3.4-8.5,9.6v11.3h18.9l-4.7,13.9H1044v57.5h-18.1v-57.8h-10.4v-13.9h10.4v-10
	c0-21.1,15.2-25.5,25.2-25.5c4.8,0.1,9.6,1.1,14,3.2L1061.5,485.1z M1084.4,492.6c-5.9-0.3-10.5-5.4-10.2-11.3
	c0.3-5.9,5.4-10.5,11.3-10.2c5.7,0.3,10.2,5,10.2,10.7C1095.5,487.9,1090.4,492.7,1084.4,492.6z M1075.3,575v-71.2h18.1v71.3
	L1075.3,575z M1148.1,576.6c-21.5,0-38.8-12.5-38.8-36.6c0-22.2,16.4-37.7,39.5-37.7c3-0.1,6.1,0.1,9.1,0.6v-34.5h18.3v102.4
	C1167.4,574.9,1157.8,577,1148.1,576.6z M1157.9,517.4c-2.8-0.8-5.6-1.1-8.5-1.1c-11.6-0.6-21.5,8.4-22.1,20v2.6
	c-0.6,11.9,8.5,22,20.4,22.6h1.9c2.7,0,5.5-0.4,8.1-1.1L1157.9,517.4z M1207.4,544.3c0.5,10.4,9.3,18.4,19.7,17.9h0.1
	c6.5,0,12.9-1.7,18.5-4.9l4.4,11.6c-7.7,5.1-16.7,7.8-25.9,7.8c-24.9,0-35.4-18.1-35.4-37.3c0-20.4,12.1-37.3,32.3-37.3
	c19.3,0,32,14.7,32,36.8v5.4H1207.4z M1220.9,515.8c-8.1,0.4-14.4,7.3-14,15.4v0.1h27.7c-0.3-7.7-4.5-15.7-13.7-15.7V515.8z
	 M1313.8,575.1v-41.9c0-7.4-1.3-15.5-10.8-15.5c-6.7,0.5-13,3.2-18.1,7.5v49.9h-18.3v-71.4h15.4l1.9,7.7c7.1-5.9,15.9-9.2,25.1-9.4
	c10.8,0,22.5,6.5,22.5,25.6V575L1313.8,575.1z M1380.4,576.6c-23.2,0-35.1-16.8-35.1-36.8c-0.8-20,14.8-36.9,34.7-37.7h2.2
	c7.1-0.3,14.2,1.5,20.4,5l-0.3,14.8c-5.1-4-11.5-6-17.9-5.9c-11.9,0.3-21.3,10.2-21,22.1v0.9c0,12.2,6.6,23.1,20.8,23.1
	c6-0.1,11.8-1.8,16.9-5l4.5,11.9C1398,573.8,1389.3,576.5,1380.4,576.6z M1430.9,544.3c0.5,10.4,9.3,18.4,19.7,17.9h0.1
	c6.5,0,12.9-1.7,18.5-5l4.4,11.6c-7.7,5.2-16.7,7.9-26,7.9c-24.9,0-35.4-18.1-35.4-37.3c0-20.4,12.1-37.3,32.3-37.3
	c19.3,0,32,14.7,32,36.8v5.4H1430.9z M1444.4,515.7c-8.1,0.4-14.4,7.3-14,15.4v0.1h27.7c-0.3-7.7-4.6-15.7-13.7-15.7V515.7z"/>
</svg>
