<?xml version="1.0" encoding="UTF-8"?>
<svg width="1200pt" height="1200pt" version="1.1" viewBox="0 0 1200 1200" xmlns="http://www.w3.org/2000/svg">
 <g fill="#01447a">
  <path d="m618.75 228.15h-37.5l18.75-228.15z"/>
  <path d="m1162.5 1200h-1125c-20.727 0-37.5-16.789-37.5-37.5s16.773-37.5 37.5-37.5h1125c20.727 0 37.5 16.789 37.5 37.5s-16.773 37.5-37.5 37.5z"/>
  <path d="m718.83 690.23c-41.254-188.7-43.832-427.73-43.832-427.73l-75-112.5-75 112.5s-2.5781 239.04-43.832 427.73z"/>
  <path d="m748.03 765.23h-296.05c-37.73 67.707-127.67 220.2-264.47 397.27h225c0-103.55 83.945-187.5 187.5-187.5s187.5 83.945 187.5 187.5h225c-136.8-177.07-226.74-329.56-264.47-397.27z"/>
 </g>
</svg>
