<?xml version="1.0" encoding="utf-8"?>
<!-- Generator: Adobe Illustrator 27.7.0, SVG Export Plug-In . SVG Version: 6.00 Build 0)  -->
<svg version="1.1" id="Layer_1" xmlns="http://www.w3.org/2000/svg" xmlns:xlink="http://www.w3.org/1999/xlink" x="0px" y="0px"
	 viewBox="0 0 820.4 873.6" style="enable-background:new 0 0 820.4 873.6;" xml:space="preserve">
<style type="text/css">
	.st0{fill:#01447A;}
</style>
<g>
	<path class="st0" d="M736.5,144.5l58-52.3c10.3-8.6,16.5-21.1,17.1-34.5c0.6-13.4-4.4-26.4-13.9-35.9S775.2,7.3,761.8,7.9
		c-13.4,0.6-25.9,6.8-34.5,17.1L676,84L536.5,23.8c-8.8-3.6-18.8-2.8-26.8,2.4s-13,13.9-13.3,23.4c-0.3,9.5,4,18.6,11.6,24.3
		l106.5,77l-69.8,79.5l-63.5,3.8c-17.5-2.8-27.5,21.5-12.2,29.8l52.5,29c2.3,1.3,4.2,3.2,5.5,5.5l29,52.5
		c8.2,15.2,32.5,5.2,29.8-12.2l4.2-64.2l79.5-69.8l77,106.5c5.7,7.6,14.8,11.9,24.3,11.6c9.5-0.3,18.2-5.3,23.4-13.3s6-18,2.4-26.8
		L736.5,144.5z"/>
	<path class="st0" d="M186.5,334h-50c-8.9,0-17.2,4.8-21.7,12.5c-4.5,7.7-4.5,17.3,0,25c4.5,7.7,12.7,12.5,21.7,12.5h50
		c8.9,0,17.2-4.8,21.7-12.5c4.5-7.7,4.5-17.3,0-25C203.7,338.8,195.4,334,186.5,334z"/>
	<path class="st0" d="M336.5,334h-50c-8.9,0-17.2,4.8-21.7,12.5c-4.5,7.7-4.5,17.3,0,25c4.5,7.7,12.7,12.5,21.7,12.5h50
		c8.9,0,17.2-4.8,21.7-12.5c4.5-7.7,4.5-17.3,0-25C353.7,338.8,345.4,334,336.5,334z"/>
	<path class="st0" d="M186.5,459h-50c-8.9,0-17.2,4.8-21.7,12.5c-4.5,7.7-4.5,17.3,0,25c4.5,7.7,12.7,12.5,21.7,12.5h50
		c8.9,0,17.2-4.8,21.7-12.5c4.5-7.7,4.5-17.3,0-25C203.7,463.8,195.4,459,186.5,459z"/>
	<path class="st0" d="M336.5,459h-50c-8.9,0-17.2,4.8-21.7,12.5c-4.5,7.7-4.5,17.3,0,25c4.5,7.7,12.7,12.5,21.7,12.5h50
		c8.9,0,17.2-4.8,21.7-12.5c4.5-7.7,4.5-17.3,0-25C353.7,463.8,345.4,459,336.5,459z"/>
	<path class="st0" d="M186.5,584h-50c-8.9,0-17.2,4.8-21.7,12.5c-4.5,7.7-4.5,17.3,0,25c4.5,7.7,12.7,12.5,21.7,12.5h50
		c8.9,0,17.2-4.8,21.7-12.5c4.5-7.7,4.5-17.3,0-25C203.7,588.8,195.4,584,186.5,584z"/>
	<path class="st0" d="M336.5,584h-50c-8.9,0-17.2,4.8-21.7,12.5c-4.5,7.7-4.5,17.3,0,25c4.5,7.7,12.7,12.5,21.7,12.5h50
		c8.9,0,17.2-4.8,21.7-12.5c4.5-7.7,4.5-17.3,0-25C353.7,588.8,345.4,584,336.5,584z"/>
	<path class="st0" d="M531.3,389.5h-69.8V288c-0.5-21.4-9.4-41.7-24.8-56.5c-15.4-14.8-36.1-22.9-57.5-22.5H93.8
		c-21.4-0.4-42,7.7-57.5,22.5C20.9,246.3,12,266.6,11.5,288v521c0,13.3,5.3,26,14.6,35.4S48.2,859,61.5,859h75
		c13.3,0,26-5.3,35.4-14.6s14.6-22.1,14.6-35.4v-25c0-6.6,2.6-13,7.3-17.7c4.7-4.7,11-7.3,17.7-7.3h50c6.6,0,13,2.6,17.7,7.3
		c4.7,4.7,7.3,11,7.3,17.7v25c0,13.3,5.3,26,14.6,35.4s22.1,14.6,35.4,14.6h275c13.3,0,26-5.3,35.4-14.6s14.6-22.1,14.6-35.4V520
		c0-34.6-13.7-67.7-38.1-92.2C599,403.4,565.8,389.6,531.3,389.5L531.3,389.5z M411.5,389.5V809h-75v-25c0-19.9-7.9-39-22-53
		c-14.1-14.1-33.1-22-53-22h-50c-19.9,0-39,7.9-53,22c-14.1,14.1-22,33.1-22,53v25h-75V288c0.5-8.1,4.1-15.7,10.1-21.2
		c6-5.4,14-8.3,22.1-7.8h285.5c8.1-0.4,16.1,2.4,22.1,7.8c6,5.4,9.7,13,10.1,21.2V389.5z M611.5,809h-150v-50h75
		c8.9,0,17.2-4.8,21.7-12.5c4.5-7.7,4.5-17.3,0-25c-4.5-7.7-12.7-12.5-21.7-12.5h-75v-25h75c8.9,0,17.2-4.8,21.7-12.5
		c4.5-7.7,4.5-17.3,0-25c-4.5-7.7-12.7-12.5-21.7-12.5h-75v-25h75c8.9,0,17.2-4.8,21.7-12.5c4.5-7.7,4.5-17.3,0-25
		c-4.5-7.7-12.7-12.5-21.7-12.5h-75v-25h75c8.9,0,17.2-4.8,21.7-12.5c4.5-7.7,4.5-17.3,0-25c-4.5-7.7-12.7-12.5-21.7-12.5h-75v-44.5
		h69.8c21.3,0.1,41.7,8.6,56.8,23.7c15,15.1,23.5,35.5,23.5,56.8V809z"/>
</g>
</svg>
