<?xml version="1.0" encoding="utf-8"?>
<!-- Generator: Adobe Illustrator 26.5.0, SVG Export Plug-In . SVG Version: 6.00 Build 0)  -->
<svg version="1.1" id="Layer_1" xmlns="http://www.w3.org/2000/svg" xmlns:xlink="http://www.w3.org/1999/xlink" x="0px" y="0px"
	 viewBox="0 0 3090 869.67" style="enable-background:new 0 0 3090 869.67;" xml:space="preserve">
<style type="text/css">
	.st0{fill:none;}
	.st1{fill:#222222;}
	.st2{fill:#2F8EEF;}
</style>
<g>
	<rect x="90" y="-65.67" class="st0" width="2910" height="923.33"/>
	<path class="st1" d="M146.61,328.41V70.01c0-6.8,4-10.8,10.8-10.8h10c6.8,0,10.8,4,10.8,10.8v122.8h143.2V70.01
		c0-6.8,4-10.8,10.8-10.8h10c6.8,0,10.8,4,10.8,10.8v258.4c0,6.8-4,10.8-10.8,10.8h-10c-6.8,0-10.8-4-10.8-10.8v-109.6h-143.2v109.6
		c0,6.8-4,10.8-10.8,10.8h-10C150.61,339.21,146.61,335.21,146.61,328.41z"/>
	<path class="st1" d="M605,199.21c0-79.6,65.6-144.4,145.2-144.4c80,0,145.2,64.8,145.2,144.4s-65.2,144.4-145.2,144.4
		C670.6,343.61,605,278.81,605,199.21z M863.4,199.21c0-65.2-51.2-116-113.2-116s-112.8,50.8-112.8,116c0,65.2,50.8,116,112.8,116
		S863.4,264.41,863.4,199.21z"/>
	<path class="st1" d="M1147.8,328.41V70.01c0-6.8,4-10.8,10.8-10.8h10c6.8,0,10.8,4,10.8,10.8v243.2h120.4c6.4,0,10.4,4,10.4,10.4
		v4.8c0,6.8-3.6,10.8-10.4,10.8h-141.2C1151.8,339.21,1147.8,335.21,1147.8,328.41z"/>
	<path class="st1" d="M1549,328.41V70.01c0-6.8,4-10.8,10.8-10.8h10c6.8,0,10.8,4,10.8,10.8v258.4c0,6.8-4,10.8-10.8,10.8h-10
		C1553,339.21,1549,335.21,1549,328.41z"/>
	<path class="st1" d="M1854.19,328.41V70.01c0-6.8,4-10.8,10.8-10.8h76.8c86,0,142,62.8,142,140c0,77.2-56,140-142,140h-76.8
		C1858.19,339.21,1854.19,335.21,1854.19,328.41z M1941.79,313.21c66,0,109.6-51.2,109.6-114s-43.6-114-109.6-114h-56v228H1941.79z"
		/>
	<path class="st1" d="M2298.2,326.81l101.6-258.8c2-6,6.4-8.8,12.4-8.8h19.2c6,0,10.4,2.8,12.4,8.8l102,258.8
		c2.8,7.6-0.4,12.4-8.4,12.4h-9.6c-6.4,0-10.4-2.8-12.8-8.8l-20-51.2h-146l-20,51.2c-2,6-6,8.8-12.4,8.8h-10
		C2298.6,339.21,2295.4,334.41,2298.2,326.81z M2485.39,253.21l-63.6-164l-63.2,164H2485.39z"/>
	<path class="st1" d="M2837,328.41v-104.8l-99.2-151.6c-4.8-7.2-1.2-12.8,7.2-12.8h13.2c5.6,0,10,2,12.8,7.2l81.2,129.6l82-129.6
		c3.2-4.8,7.2-7.2,12.8-7.2h13.2c8.4,0,12,5.6,7.2,12.8l-99.2,151.6v104.8c0,6.8-3.6,10.8-10.4,10.8h-10.4
		C2841,339.21,2837,335.21,2837,328.41z"/>
	<path class="st2" d="M211.37,791.21L108.33,465.29c-7.28-22.96,3.36-38.08,27.44-38.08h51.52c19.6,0,32.48,9.52,37.52,28.56
		l45.36,166.32l47.6-154c5.6-19.04,17.92-28,37.52-28h24.64c19.6,0,31.92,8.96,37.52,28l46.48,154l45.36-166.32
		c5.04-19.04,17.92-28.56,37.52-28.56h51.52c24.08,0,34.72,15.12,27.44,38.08L522.73,791.21c-6.16,18.48-18.48,28-38.08,28h-31.36
		c-19.6,0-31.92-8.96-37.52-28l-48.72-162.96l-48.72,162.96c-5.6,19.04-17.92,28-37.52,28h-31.36
		C229.85,819.21,217.53,809.69,211.37,791.21z"/>
	<path class="st2" d="M820.09,528.01v50.96h106.96c21.84,0,33.6,11.76,33.6,33.6v22.4c0,21.84-11.76,33.6-33.6,33.6H820.09v49.84
		h128.24c21.84,0,33.6,11.76,33.6,33.6v33.6c0,21.84-11.76,33.6-33.6,33.6H736.09c-21.84,0-33.6-11.76-33.6-33.6v-324.8
		c0-21.84,11.76-33.6,33.6-33.6h212.24c21.84,0,33.6,11.76,33.6,33.6v33.6c0,21.84-11.76,33.6-33.6,33.6H820.09z"/>
	<path class="st2" d="M1401.36,702.73c0,70.56-57.68,116.48-146.72,116.48h-152.32c-21.84,0-33.6-11.76-33.6-33.6v-324.8
		c0-21.84,11.76-33.6,33.6-33.6h136.64c84.56,0,145.6,42.56,145.6,113.12c0,25.2-11.76,56-52.08,72.8
		C1378.96,622.09,1401.36,670.81,1401.36,702.73z M1186.32,519.05v67.76h34.72c35.28,0,51.52-15.12,51.52-32.48
		c0-21.28-16.8-35.28-45.92-35.28H1186.32z M1288.24,691.53c0-16.8-15.68-35.28-50.4-35.28h-51.52v68.32h61.6
		C1277.04,724.57,1288.24,707.77,1288.24,691.53z"/>
	<path class="st2" d="M1770.96,460.81v33.6c0,21.84-11.76,33.6-33.6,33.6h-72.8v257.6c0,21.84-11.76,33.6-33.6,33.6h-48.16
		c-21.84,0-33.6-11.76-33.6-33.6v-257.6h-70.56c-21.84,0-33.6-11.76-33.6-33.6v-33.6c0-21.84,11.76-33.6,33.6-33.6h258.72
		C1759.2,427.21,1770.96,438.97,1770.96,460.81z"/>
	<path class="st2" d="M1958.56,528.01v50.96h106.96c21.84,0,33.6,11.76,33.6,33.6v22.4c0,21.84-11.76,33.6-33.6,33.6h-106.96v49.84
		h128.24c21.84,0,33.6,11.76,33.6,33.6v33.6c0,21.84-11.76,33.6-33.6,33.6h-212.24c-21.84,0-33.6-11.76-33.6-33.6v-324.8
		c0-21.84,11.76-33.6,33.6-33.6h212.24c21.84,0,33.6,11.76,33.6,33.6v33.6c0,21.84-11.76,33.6-33.6,33.6H1958.56z"/>
	<path class="st2" d="M2181.43,623.21c0-109.2,86.24-202.16,218.4-202.16c51.52,0,90.16,16.24,124.32,41.44
		c17.92,12.88,19.04,30.8,4.48,47.04l-22.4,25.76c-14,16.24-28.56,15.12-47.04,2.8c-19.6-12.32-40.88-16.24-59.36-16.24
		c-61.04,0-100.8,44.8-100.8,101.36s39.76,101.36,100.8,101.36c18.48,0,39.2-3.92,59.36-16.24c18.48-12.32,33.04-13.44,47.04,2.8
		l22.4,25.76c14.56,16.8,14.56,33.04-1.68,45.36c-35.28,26.32-74.48,43.12-127.12,43.12
		C2267.67,825.37,2181.43,732.41,2181.43,623.21z"/>
	<path class="st2" d="M2615.43,785.61v-324.8c0-21.84,11.76-33.6,33.6-33.6h50.4c21.84,0,33.6,11.76,33.6,33.6v122.64h114.8V460.81
		c0-21.84,11.76-33.6,33.6-33.6h50.4c21.84,0,33.6,11.76,33.6,33.6v324.8c0,21.84-11.76,33.6-33.6,33.6h-50.4
		c-21.84,0-33.6-11.76-33.6-33.6v-106.4h-114.8v106.4c0,21.84-11.76,33.6-33.6,33.6h-50.4
		C2627.19,819.21,2615.43,807.45,2615.43,785.61z"/>
</g>
</svg>
