<?xml version="1.0" encoding="utf-8"?>
<!-- Generator: Adobe Illustrator 28.0.0, SVG Export Plug-In . SVG Version: 6.00 Build 0)  -->
<svg version="1.1" id="Layer_1" xmlns="http://www.w3.org/2000/svg" xmlns:xlink="http://www.w3.org/1999/xlink" x="0px" y="0px"
	 viewBox="0 0 1200 1200" style="enable-background:new 0 0 1200 1200;" xml:space="preserve">
<style type="text/css">
	.st0{fill:#222222;}
</style>
<path class="st0" d="M975.5,693.3c-0.4,0.4-0.9,0.9-1.3,1.3c-135,135-357.5,129.5-485.3-16.8c-107.6-123.2-108.3-310.1-1.6-434.1
	c5.9-6.8,12-13.3,18.2-19.6c29.3-29.1-1.5-77.3-40.6-64.2c-70.4,23.7-136,65.2-190,124.4c-161.6,177.2-155,454.6,14.2,624.5
	c176.9,177.5,464.1,177.7,641.2,0.6c51.7-51.7,88.2-112.7,109.7-177.6C1052.9,693,1004.3,664.2,975.5,693.3L975.5,693.3z"/>
</svg>
