<?xml version="1.0" encoding="UTF-8"?>
<svg width="1200pt" height="1200pt" version="1.1" viewBox="0 0 1200 1200" xmlns="http://www.w3.org/2000/svg">
 <defs>
  <clipPath id="b">
   <path d="m293 359h548v548h-548z"/>
  </clipPath>
  <clipPath id="a">
   <path d="m65.629 600 534.37-534.37 534.37 534.37-534.37 534.37z"/>
  </clipPath>
 </defs>
 <g clip-path="url(#b)">
  <g clip-path="url(#a)">
   <path d="m827.27 372.73c-18.168-18.168-50.016-18.168-68.188 0l-124.98 124.99-295.51-68.188-45.477 45.477 238.65 125.04-124.93 124.93-79.566-11.383-34.094 34.094 102.28 56.859 56.859 102.28 34.094-34.094-11.383-79.566 124.99-124.99 125.04 238.65 45.477-45.477-68.188-295.51 124.99-124.99c18.117-18.113 18.117-49.961-0.054687-68.133z" fill="#212121"/>
  </g>
 </g>
</svg>
